<?xml version="1.0"?><svg xmlns="http://www.w3.org/2000/svg" width="360" height="360"><rect x="0" y="0" width="100%" height="100%" fill="rgb(253, 121, 168)" /><path d="M0 67 C 63 0, 117 0, 180 67 S 297 134, 360 67 S 477 0, 540, 67" fill="none" stroke="#222" style="opacity:0.13266666666667;stroke-width:24px;" transform="translate(-90, -100.5)" /><path d="M0 67 C 63 0, 117 0, 180 67 S 297 134, 360 67 S 477 0, 540, 67" fill="none" stroke="#222" style="opacity:0.13266666666667;stroke-width:24px;" transform="translate(-90, 763.5)" /><path d="M0 67 C 63 0, 117 0, 180 67 S 297 134, 360 67 S 477 0, 540, 67" fill="none" stroke="#ddd" style="opacity:0.089333333333333;stroke-width:24px;" transform="translate(-90, -76.5)" /><path d="M0 67 C 63 0, 117 0, 180 67 S 297 134, 360 67 S 477 0, 540, 67" fill="none" stroke="#ddd" style="opacity:0.089333333333333;stroke-width:24px;" transform="translate(-90, 787.5)" /><path d="M0 67 C 63 0, 117 0, 180 67 S 297 134, 360 67 S 477 0, 540, 67" fill="none" stroke="#ddd" style="opacity:0.124;stroke-width:24px;" transform="translate(-90, -52.5)" /><path d="M0 67 C 63 0, 117 0, 180 67 S 297 134, 360 67 S 477 0, 540, 67" fill="none" stroke="#ddd" style="opacity:0.124;stroke-width:24px;" transform="translate(-90, 811.5)" /><path d="M0 67 C 63 0, 117 0, 180 67 S 297 134, 360 67 S 477 0, 540, 67" fill="none" stroke="#222" style="opacity:0.098;stroke-width:24px;" transform="translate(-90, -28.5)" /><path d="M0 67 C 63 0, 117 0, 180 67 S 297 134, 360 67 S 477 0, 540, 67" fill="none" stroke="#222" style="opacity:0.098;stroke-width:24px;" transform="translate(-90, 835.5)" /><path d="M0 67 C 63 0, 117 0, 180 67 S 297 134, 360 67 S 477 0, 540, 67" fill="none" stroke="#222" style="opacity:0.13266666666667;stroke-width:24px;" transform="translate(-90, -4.5)" /><path d="M0 67 C 63 0, 117 0, 180 67 S 297 134, 360 67 S 477 0, 540, 67" fill="none" stroke="#222" style="opacity:0.13266666666667;stroke-width:24px;" transform="translate(-90, 859.5)" /><path d="M0 67 C 63 0, 117 0, 180 67 S 297 134, 360 67 S 477 0, 540, 67" fill="none" stroke="#ddd" style="opacity:0.072;stroke-width:24px;" transform="translate(-90, 19.5)" /><path d="M0 67 C 63 0, 117 0, 180 67 S 297 134, 360 67 S 477 0, 540, 67" fill="none" stroke="#ddd" style="opacity:0.072;stroke-width:24px;" transform="translate(-90, 883.5)" /><path d="M0 67 C 63 0, 117 0, 180 67 S 297 134, 360 67 S 477 0, 540, 67" fill="none" stroke="#222" style="opacity:0.15;stroke-width:24px;" transform="translate(-90, 43.5)" /><path d="M0 67 C 63 0, 117 0, 180 67 S 297 134, 360 67 S 477 0, 540, 67" fill="none" stroke="#222" style="opacity:0.15;stroke-width:24px;" transform="translate(-90, 907.5)" /><path d="M0 67 C 63 0, 117 0, 180 67 S 297 134, 360 67 S 477 0, 540, 67" fill="none" stroke="#222" style="opacity:0.15;stroke-width:24px;" transform="translate(-90, 67.5)" /><path d="M0 67 C 63 0, 117 0, 180 67 S 297 134, 360 67 S 477 0, 540, 67" fill="none" stroke="#222" style="opacity:0.15;stroke-width:24px;" transform="translate(-90, 931.5)" /><path d="M0 67 C 63 0, 117 0, 180 67 S 297 134, 360 67 S 477 0, 540, 67" fill="none" stroke="#222" style="opacity:0.046;stroke-width:24px;" transform="translate(-90, 91.5)" /><path d="M0 67 C 63 0, 117 0, 180 67 S 297 134, 360 67 S 477 0, 540, 67" fill="none" stroke="#222" style="opacity:0.046;stroke-width:24px;" transform="translate(-90, 955.5)" /><path d="M0 67 C 63 0, 117 0, 180 67 S 297 134, 360 67 S 477 0, 540, 67" fill="none" stroke="#222" style="opacity:0.063333333333333;stroke-width:24px;" transform="translate(-90, 115.5)" /><path d="M0 67 C 63 0, 117 0, 180 67 S 297 134, 360 67 S 477 0, 540, 67" fill="none" stroke="#222" style="opacity:0.063333333333333;stroke-width:24px;" transform="translate(-90, 979.5)" /><path d="M0 67 C 63 0, 117 0, 180 67 S 297 134, 360 67 S 477 0, 540, 67" fill="none" stroke="#222" style="opacity:0.098;stroke-width:24px;" transform="translate(-90, 139.5)" /><path d="M0 67 C 63 0, 117 0, 180 67 S 297 134, 360 67 S 477 0, 540, 67" fill="none" stroke="#222" style="opacity:0.098;stroke-width:24px;" transform="translate(-90, 1003.5)" /><path d="M0 67 C 63 0, 117 0, 180 67 S 297 134, 360 67 S 477 0, 540, 67" fill="none" stroke="#222" style="opacity:0.028666666666667;stroke-width:24px;" transform="translate(-90, 163.5)" /><path d="M0 67 C 63 0, 117 0, 180 67 S 297 134, 360 67 S 477 0, 540, 67" fill="none" stroke="#222" style="opacity:0.028666666666667;stroke-width:24px;" transform="translate(-90, 1027.5)" /><path d="M0 67 C 63 0, 117 0, 180 67 S 297 134, 360 67 S 477 0, 540, 67" fill="none" stroke="#ddd" style="opacity:0.10666666666667;stroke-width:24px;" transform="translate(-90, 187.5)" /><path d="M0 67 C 63 0, 117 0, 180 67 S 297 134, 360 67 S 477 0, 540, 67" fill="none" stroke="#ddd" style="opacity:0.10666666666667;stroke-width:24px;" transform="translate(-90, 1051.5)" /><path d="M0 67 C 63 0, 117 0, 180 67 S 297 134, 360 67 S 477 0, 540, 67" fill="none" stroke="#222" style="opacity:0.080666666666667;stroke-width:24px;" transform="translate(-90, 211.5)" /><path d="M0 67 C 63 0, 117 0, 180 67 S 297 134, 360 67 S 477 0, 540, 67" fill="none" stroke="#222" style="opacity:0.080666666666667;stroke-width:24px;" transform="translate(-90, 1075.5)" /><path d="M0 67 C 63 0, 117 0, 180 67 S 297 134, 360 67 S 477 0, 540, 67" fill="none" stroke="#ddd" style="opacity:0.10666666666667;stroke-width:24px;" transform="translate(-90, 235.5)" /><path d="M0 67 C 63 0, 117 0, 180 67 S 297 134, 360 67 S 477 0, 540, 67" fill="none" stroke="#ddd" style="opacity:0.10666666666667;stroke-width:24px;" transform="translate(-90, 1099.5)" /><path d="M0 67 C 63 0, 117 0, 180 67 S 297 134, 360 67 S 477 0, 540, 67" fill="none" stroke="#222" style="opacity:0.15;stroke-width:24px;" transform="translate(-90, 259.5)" /><path d="M0 67 C 63 0, 117 0, 180 67 S 297 134, 360 67 S 477 0, 540, 67" fill="none" stroke="#222" style="opacity:0.15;stroke-width:24px;" transform="translate(-90, 1123.5)" /><path d="M0 67 C 63 0, 117 0, 180 67 S 297 134, 360 67 S 477 0, 540, 67" fill="none" stroke="#ddd" style="opacity:0.037333333333333;stroke-width:24px;" transform="translate(-90, 283.5)" /><path d="M0 67 C 63 0, 117 0, 180 67 S 297 134, 360 67 S 477 0, 540, 67" fill="none" stroke="#ddd" style="opacity:0.037333333333333;stroke-width:24px;" transform="translate(-90, 1147.5)" /><path d="M0 67 C 63 0, 117 0, 180 67 S 297 134, 360 67 S 477 0, 540, 67" fill="none" stroke="#222" style="opacity:0.046;stroke-width:24px;" transform="translate(-90, 307.5)" /><path d="M0 67 C 63 0, 117 0, 180 67 S 297 134, 360 67 S 477 0, 540, 67" fill="none" stroke="#222" style="opacity:0.046;stroke-width:24px;" transform="translate(-90, 1171.5)" /><path d="M0 67 C 63 0, 117 0, 180 67 S 297 134, 360 67 S 477 0, 540, 67" fill="none" stroke="#ddd" style="opacity:0.089333333333333;stroke-width:24px;" transform="translate(-90, 331.5)" /><path d="M0 67 C 63 0, 117 0, 180 67 S 297 134, 360 67 S 477 0, 540, 67" fill="none" stroke="#ddd" style="opacity:0.089333333333333;stroke-width:24px;" transform="translate(-90, 1195.5)" /><path d="M0 67 C 63 0, 117 0, 180 67 S 297 134, 360 67 S 477 0, 540, 67" fill="none" stroke="#ddd" style="opacity:0.14133333333333;stroke-width:24px;" transform="translate(-90, 355.5)" /><path d="M0 67 C 63 0, 117 0, 180 67 S 297 134, 360 67 S 477 0, 540, 67" fill="none" stroke="#ddd" style="opacity:0.14133333333333;stroke-width:24px;" transform="translate(-90, 1219.5)" /><path d="M0 67 C 63 0, 117 0, 180 67 S 297 134, 360 67 S 477 0, 540, 67" fill="none" stroke="#ddd" style="opacity:0.054666666666667;stroke-width:24px;" transform="translate(-90, 379.5)" /><path d="M0 67 C 63 0, 117 0, 180 67 S 297 134, 360 67 S 477 0, 540, 67" fill="none" stroke="#ddd" style="opacity:0.054666666666667;stroke-width:24px;" transform="translate(-90, 1243.5)" /><path d="M0 67 C 63 0, 117 0, 180 67 S 297 134, 360 67 S 477 0, 540, 67" fill="none" stroke="#222" style="opacity:0.046;stroke-width:24px;" transform="translate(-90, 403.5)" /><path d="M0 67 C 63 0, 117 0, 180 67 S 297 134, 360 67 S 477 0, 540, 67" fill="none" stroke="#222" style="opacity:0.046;stroke-width:24px;" transform="translate(-90, 1267.5)" /><path d="M0 67 C 63 0, 117 0, 180 67 S 297 134, 360 67 S 477 0, 540, 67" fill="none" stroke="#ddd" style="opacity:0.054666666666667;stroke-width:24px;" transform="translate(-90, 427.5)" /><path d="M0 67 C 63 0, 117 0, 180 67 S 297 134, 360 67 S 477 0, 540, 67" fill="none" stroke="#ddd" style="opacity:0.054666666666667;stroke-width:24px;" transform="translate(-90, 1291.5)" /><path d="M0 67 C 63 0, 117 0, 180 67 S 297 134, 360 67 S 477 0, 540, 67" fill="none" stroke="#ddd" style="opacity:0.10666666666667;stroke-width:24px;" transform="translate(-90, 451.5)" /><path d="M0 67 C 63 0, 117 0, 180 67 S 297 134, 360 67 S 477 0, 540, 67" fill="none" stroke="#ddd" style="opacity:0.10666666666667;stroke-width:24px;" transform="translate(-90, 1315.5)" /><path d="M0 67 C 63 0, 117 0, 180 67 S 297 134, 360 67 S 477 0, 540, 67" fill="none" stroke="#222" style="opacity:0.11533333333333;stroke-width:24px;" transform="translate(-90, 475.5)" /><path d="M0 67 C 63 0, 117 0, 180 67 S 297 134, 360 67 S 477 0, 540, 67" fill="none" stroke="#222" style="opacity:0.11533333333333;stroke-width:24px;" transform="translate(-90, 1339.5)" /><path d="M0 67 C 63 0, 117 0, 180 67 S 297 134, 360 67 S 477 0, 540, 67" fill="none" stroke="#ddd" style="opacity:0.10666666666667;stroke-width:24px;" transform="translate(-90, 499.5)" /><path d="M0 67 C 63 0, 117 0, 180 67 S 297 134, 360 67 S 477 0, 540, 67" fill="none" stroke="#ddd" style="opacity:0.10666666666667;stroke-width:24px;" transform="translate(-90, 1363.5)" /><path d="M0 67 C 63 0, 117 0, 180 67 S 297 134, 360 67 S 477 0, 540, 67" fill="none" stroke="#222" style="opacity:0.046;stroke-width:24px;" transform="translate(-90, 523.5)" /><path d="M0 67 C 63 0, 117 0, 180 67 S 297 134, 360 67 S 477 0, 540, 67" fill="none" stroke="#222" style="opacity:0.046;stroke-width:24px;" transform="translate(-90, 1387.5)" /><path d="M0 67 C 63 0, 117 0, 180 67 S 297 134, 360 67 S 477 0, 540, 67" fill="none" stroke="#ddd" style="opacity:0.124;stroke-width:24px;" transform="translate(-90, 547.5)" /><path d="M0 67 C 63 0, 117 0, 180 67 S 297 134, 360 67 S 477 0, 540, 67" fill="none" stroke="#ddd" style="opacity:0.124;stroke-width:24px;" transform="translate(-90, 1411.5)" /><path d="M0 67 C 63 0, 117 0, 180 67 S 297 134, 360 67 S 477 0, 540, 67" fill="none" stroke="#ddd" style="opacity:0.054666666666667;stroke-width:24px;" transform="translate(-90, 571.5)" /><path d="M0 67 C 63 0, 117 0, 180 67 S 297 134, 360 67 S 477 0, 540, 67" fill="none" stroke="#ddd" style="opacity:0.054666666666667;stroke-width:24px;" transform="translate(-90, 1435.5)" /><path d="M0 67 C 63 0, 117 0, 180 67 S 297 134, 360 67 S 477 0, 540, 67" fill="none" stroke="#222" style="opacity:0.028666666666667;stroke-width:24px;" transform="translate(-90, 595.5)" /><path d="M0 67 C 63 0, 117 0, 180 67 S 297 134, 360 67 S 477 0, 540, 67" fill="none" stroke="#222" style="opacity:0.028666666666667;stroke-width:24px;" transform="translate(-90, 1459.5)" /><path d="M0 67 C 63 0, 117 0, 180 67 S 297 134, 360 67 S 477 0, 540, 67" fill="none" stroke="#222" style="opacity:0.13266666666667;stroke-width:24px;" transform="translate(-90, 619.5)" /><path d="M0 67 C 63 0, 117 0, 180 67 S 297 134, 360 67 S 477 0, 540, 67" fill="none" stroke="#222" style="opacity:0.13266666666667;stroke-width:24px;" transform="translate(-90, 1483.5)" /><path d="M0 67 C 63 0, 117 0, 180 67 S 297 134, 360 67 S 477 0, 540, 67" fill="none" stroke="#222" style="opacity:0.098;stroke-width:24px;" transform="translate(-90, 643.5)" /><path d="M0 67 C 63 0, 117 0, 180 67 S 297 134, 360 67 S 477 0, 540, 67" fill="none" stroke="#222" style="opacity:0.098;stroke-width:24px;" transform="translate(-90, 1507.5)" /><path d="M0 67 C 63 0, 117 0, 180 67 S 297 134, 360 67 S 477 0, 540, 67" fill="none" stroke="#222" style="opacity:0.080666666666667;stroke-width:24px;" transform="translate(-90, 667.5)" /><path d="M0 67 C 63 0, 117 0, 180 67 S 297 134, 360 67 S 477 0, 540, 67" fill="none" stroke="#222" style="opacity:0.080666666666667;stroke-width:24px;" transform="translate(-90, 1531.5)" /><path d="M0 67 C 63 0, 117 0, 180 67 S 297 134, 360 67 S 477 0, 540, 67" fill="none" stroke="#222" style="opacity:0.11533333333333;stroke-width:24px;" transform="translate(-90, 691.5)" /><path d="M0 67 C 63 0, 117 0, 180 67 S 297 134, 360 67 S 477 0, 540, 67" fill="none" stroke="#222" style="opacity:0.11533333333333;stroke-width:24px;" transform="translate(-90, 1555.5)" /><path d="M0 67 C 63 0, 117 0, 180 67 S 297 134, 360 67 S 477 0, 540, 67" fill="none" stroke="#ddd" style="opacity:0.14133333333333;stroke-width:24px;" transform="translate(-90, 715.5)" /><path d="M0 67 C 63 0, 117 0, 180 67 S 297 134, 360 67 S 477 0, 540, 67" fill="none" stroke="#ddd" style="opacity:0.14133333333333;stroke-width:24px;" transform="translate(-90, 1579.5)" /><path d="M0 67 C 63 0, 117 0, 180 67 S 297 134, 360 67 S 477 0, 540, 67" fill="none" stroke="#ddd" style="opacity:0.124;stroke-width:24px;" transform="translate(-90, 739.5)" /><path d="M0 67 C 63 0, 117 0, 180 67 S 297 134, 360 67 S 477 0, 540, 67" fill="none" stroke="#ddd" style="opacity:0.124;stroke-width:24px;" transform="translate(-90, 1603.5)" /></svg>