<?xml version="1.0" standalone="no"?>
<!DOCTYPE svg PUBLIC "-//W3C//DTD SVG 20010904//EN"
 "http://www.w3.org/TR/2001/REC-SVG-20010904/DTD/svg10.dtd">
<svg version="1.0" xmlns="http://www.w3.org/2000/svg"
 width="1024.000000pt" height="1024.000000pt" viewBox="0 0 1024.000000 1024.000000"
 preserveAspectRatio="xMidYMid meet">
<metadata>
Created by potrace 1.14, written by Peter Selinger 2001-2017
</metadata>
<g transform="translate(0.000000,1024.000000) scale(0.100000,-0.100000)"
fill="#000000" stroke="none">
<path d="M2783 9821 c-130 -33 -212 -160 -184 -284 6 -29 20 -65 30 -81 l19
-29 -360 -317 -360 -318 -42 29 c-100 71 -227 59 -316 -31 -37 -36 -53 -62
-65 -105 -24 -82 -12 -143 45 -231 13 -21 -3 -40 -285 -350 -164 -181 -310
-342 -325 -358 l-28 -28 -28 21 c-16 12 -54 26 -84 33 -119 24 -249 -54 -284
-173 -20 -66 -20 -82 0 -148 30 -101 140 -181 251 -181 26 0 34 -5 38 -22 3
-13 95 -426 205 -918 110 -492 202 -903 204 -912 3 -12 -9 -23 -40 -38 -59
-29 -111 -92 -131 -160 -30 -104 13 -213 109 -275 26 -16 47 -34 47 -40 1 -5
-116 -424 -258 -930 l-258 -920 -36 3 c-108 10 -230 -74 -261 -179 -20 -66
-20 -82 0 -148 22 -75 92 -144 169 -166 68 -20 125 -14 187 19 l44 23 320
-360 321 -360 -28 -41 c-71 -100 -58 -228 31 -316 36 -37 62 -53 105 -65 81
-24 143 -12 231 45 20 12 42 -5 382 -314 l360 -328 -23 -44 c-55 -103 -38
-212 45 -294 88 -89 217 -102 315 -31 55 40 98 124 99 196 1 40 5 56 16 60 41
12 1878 455 1887 455 6 0 14 -12 17 -26 12 -45 97 -121 157 -138 66 -20 82
-20 148 0 60 17 145 93 157 138 4 18 11 25 23 22 38 -11 1850 -486 1855 -486
2 0 2 -15 -1 -34 -16 -99 72 -229 178 -260 66 -20 82 -20 148 0 75 22 144 92
166 169 20 68 14 125 -19 187 l-23 44 360 320 360 321 41 -28 c100 -71 228
-58 316 31 88 87 101 211 34 313 -25 38 -25 39 -7 60 10 12 156 171 326 354
l307 332 46 -24 c64 -34 121 -40 189 -20 77 22 147 91 169 166 20 66 20 82 0
148 -30 104 -154 190 -256 179 l-32 -3 -228 930 c-125 512 -228 935 -228 941
0 7 12 15 26 18 45 12 121 97 138 157 20 66 20 82 0 148 -17 60 -93 145 -138
157 -18 4 -25 11 -22 23 3 9 114 430 246 936 133 506 243 921 245 923 2 2 28
5 59 6 74 4 158 47 197 101 71 98 58 227 -31 315 -81 82 -183 99 -288 48 -43
-20 -44 -20 -62 -2 -10 11 -151 173 -314 362 l-296 343 30 42 c72 101 60 228
-30 317 -87 88 -211 101 -313 34 -38 -25 -39 -25 -60 -7 -12 10 -171 156 -354
326 l-332 307 24 46 c34 64 40 121 20 189 -22 77 -91 147 -166 169 -66 20 -82
20 -148 0 -103 -30 -193 -159 -179 -255 3 -17 2 -32 -2 -34 -7 -4 -1853 -475
-1863 -475 -3 0 -8 12 -11 26 -12 45 -97 121 -157 138 -29 9 -62 16 -74 16
-12 0 -45 -7 -74 -16 -60 -17 -145 -93 -157 -138 -4 -19 -11 -25 -23 -22 -38
11 -1840 486 -1845 486 -3 0 -3 13 0 29 9 44 -13 124 -47 170 -52 70 -179 114
-266 92z m1247 -561 c503 -133 916 -242 917 -243 8 -9 -13 -57 -25 -57 -8 0
-394 -22 -856 -50 -463 -27 -870 -51 -905 -52 l-64 -3 -14 49 c-20 68 -93 139
-164 160 -66 20 -82 20 -148 0 -99 -29 -181 -140 -181 -245 0 -18 -6 -29 -17
-33 -30 -8 -549 -106 -565 -106 -8 0 -26 21 -40 47 l-24 47 359 317 359 317
42 -29 c100 -71 227 -59 317 31 26 26 51 60 55 74 4 19 11 25 23 22 9 -3 428
-114 931 -246z m3294 204 c4 -14 29 -48 55 -74 88 -88 212 -101 314 -34 38 25
39 25 60 7 12 -10 171 -156 354 -326 l332 -307 -26 -50 c-18 -36 -31 -49 -42
-45 -9 2 -131 29 -270 60 -140 31 -265 58 -278 61 -18 5 -23 13 -23 38 0 110
-80 220 -181 250 -29 9 -62 16 -74 16 -96 0 -211 -85 -238 -176 -14 -48 -14
-48 -53 -46 -167 10 -1683 113 -1736 118 -60 5 -66 8 -71 31 -3 16 1 27 10 30
21 8 1835 471 1849 472 7 1 15 -11 18 -25z m-2372 -558 c4 -17 6 -31 5 -32 -1
-1 -226 -100 -501 -220 l-498 -218 -22 29 c-38 54 -80 86 -136 102 -137 40
-281 -52 -312 -197 -15 -74 7 -150 61 -211 l39 -44 -200 -315 c-110 -173 -203
-321 -207 -328 -6 -11 -19 -10 -69 4 -53 15 -70 15 -116 5 -142 -32 -233 -176
-194 -308 l15 -52 -342 -190 -342 -191 -46 45 c-114 109 -288 91 -379 -40 -43
-61 -55 -136 -34 -209 14 -47 28 -70 72 -112 l54 -53 -212 -490 c-208 -479
-214 -490 -238 -484 -14 3 -26 7 -27 8 -2 1 35 414 82 919 47 504 85 925 85
935 0 13 14 20 59 29 105 22 181 97 203 203 21 104 -38 221 -137 269 -33 16
-44 27 -41 39 3 9 30 129 60 266 31 138 58 260 61 273 4 17 12 22 38 22 141 0
267 124 267 261 0 18 6 29 18 33 30 9 548 106 564 106 9 0 26 -20 38 -45 29
-60 92 -112 160 -132 135 -39 279 49 311 193 12 53 13 54 48 55 20 0 423 24
896 54 473 29 871 52 884 51 18 -1 27 -9 33 -30z m1388 -31 c448 -30 845 -57
881 -61 l66 -6 12 -51 c11 -48 46 -106 81 -135 128 -106 343 -56 400 93 7 19
15 25 28 21 9 -3 132 -30 271 -61 140 -31 265 -58 277 -61 18 -5 22 -15 27
-59 13 -128 101 -216 231 -231 l55 -7 10 -51 c34 -168 101 -524 101 -538 0 -9
-18 -25 -45 -38 -60 -29 -112 -92 -132 -160 -39 -135 49 -279 193 -311 51 -12
54 -14 54 -43 0 -17 22 -433 50 -925 27 -492 47 -898 45 -902 -3 -3 -16 -9
-29 -11 -22 -5 -28 1 -51 56 -14 34 -106 257 -204 496 l-178 435 38 28 c86 63
121 217 71 314 -43 83 -134 143 -217 143 -49 0 -124 -32 -169 -71 l-47 -41
-330 197 c-258 155 -329 202 -324 214 4 9 12 39 17 66 25 114 -57 245 -173
279 -65 20 -83 20 -142 2 l-46 -14 -190 338 -190 337 44 46 c155 162 42 414
-184 411 -79 -1 -138 -27 -192 -86 l-36 -39 -491 213 c-480 208 -491 214 -485
238 8 36 8 36 50 33 21 -2 405 -28 853 -58z m-1346 -60 c27 -35 27 -36 9 -60
-10 -13 -187 -226 -393 -473 l-375 -448 -45 20 c-31 14 -65 20 -110 20 -150 0
-263 -124 -245 -270 l6 -50 -282 -109 c-258 -99 -282 -106 -292 -90 -5 10 -24
34 -42 54 l-33 36 200 315 c109 173 203 321 207 328 6 11 19 10 69 -4 53 -15
70 -15 115 -5 75 17 130 60 164 129 24 48 28 68 27 133 l-2 75 492 216 c270
119 494 217 497 217 4 1 19 -15 33 -34z m936 -182 c261 -113 476 -207 476
-207 1 -1 -3 -23 -9 -51 -23 -114 58 -245 174 -279 65 -20 83 -20 142 -2 l46
14 192 -340 191 -340 -25 -22 c-14 -11 -33 -33 -42 -48 -10 -16 -21 -28 -26
-28 -6 0 -538 228 -545 234 -1 1 3 24 9 51 24 116 -58 246 -178 280 -65 19
-122 14 -181 -15 -37 -19 -39 -19 -55 -3 -34 37 -729 893 -729 898 0 4 12 22
27 41 17 23 31 33 42 29 9 -3 230 -99 491 -212z m-835 102 c57 -27 148 -26
205 2 42 22 45 22 61 5 31 -33 729 -891 729 -896 0 -3 -14 -25 -30 -48 -72
-102 -60 -229 29 -318 48 -47 119 -80 176 -80 60 0 129 33 181 86 l53 54 271
-118 271 -117 -6 -52 c-20 -163 114 -299 273 -279 l47 7 109 -282 c101 -263
107 -283 90 -292 -45 -24 -103 -98 -119 -148 -19 -66 -19 -82 1 -148 11 -39
29 -67 64 -102 89 -89 216 -101 319 -29 38 27 45 29 60 17 24 -20 885 -740
890 -743 2 -2 -7 -25 -20 -51 -31 -64 -32 -151 -2 -211 l21 -43 -475 -369
-474 -369 -44 34 c-146 111 -355 32 -396 -150 -21 -94 19 -194 100 -253 l38
-28 -113 -274 -113 -275 -78 0 c-67 -1 -86 -5 -131 -30 -90 -49 -136 -135
-130 -244 l3 -53 -275 -109 c-151 -60 -277 -109 -280 -109 -3 0 -16 18 -30 40
-79 129 -258 143 -370 30 -90 -89 -102 -216 -30 -318 16 -23 30 -45 30 -48 0
-4 -505 -629 -740 -917 -15 -18 -17 -18 -80 3 -72 24 -134 22 -196 -7 -33 -16
-35 -16 -53 3 -36 39 -721 883 -721 889 0 4 14 26 30 49 72 99 60 227 -29 316
-48 47 -119 80 -176 80 -61 0 -129 -33 -182 -87 l-54 -55 -267 114 -267 114
-1 79 c0 62 -5 90 -22 122 -51 98 -149 152 -252 138 l-48 -7 -112 283 c-102
259 -110 283 -93 292 44 24 102 98 118 148 19 66 19 82 -1 148 -11 39 -29 67
-64 102 -89 89 -216 101 -318 29 -24 -17 -48 -27 -55 -23 -36 22 -927 766
-924 771 49 91 56 179 20 252 -22 42 -22 45 -5 61 33 31 891 729 896 729 3 0
25 -14 48 -30 102 -72 229 -60 318 29 47 48 80 119 80 176 0 60 -33 129 -85
181 l-53 52 119 268 c66 148 121 269 122 270 1 1 25 -3 52 -9 156 -32 312 120
290 282 l-6 47 282 109 c264 101 282 107 292 89 24 -45 97 -103 148 -119 66
-19 82 -19 148 1 39 11 67 29 102 64 89 89 101 216 28 318 -27 37 -29 45 -17
60 27 35 467 563 616 740 85 101 157 181 161 179 3 -1 24 -12 46 -22z m-3424
-388 c-1 -12 -30 -141 -62 -286 -32 -146 -59 -266 -59 -268 0 -2 -15 -3 -33
-3 -111 0 -221 -80 -251 -181 -20 -66 -20 -82 0 -148 20 -69 92 -144 155 -162
24 -7 45 -13 46 -14 2 -1 -35 -414 -82 -919 -47 -504 -85 -926 -85 -937 0 -30
-58 -27 -65 4 -3 12 -95 425 -205 917 -110 492 -202 903 -204 913 -3 12 4 21
20 28 144 54 198 275 97 391 -13 15 17 51 312 376 l327 360 47 -24 c36 -20 45
-30 42 -47z m7453 -365 l296 -343 -30 -40 c-40 -56 -56 -133 -41 -195 15 -60
55 -116 104 -146 21 -13 44 -27 52 -33 13 -8 -23 -153 -231 -945 -135 -514
-246 -936 -247 -937 -1 -1 -14 1 -29 4 -24 4 -28 10 -28 37 0 17 -22 433 -50
925 -27 492 -47 898 -45 902 3 4 20 10 38 13 95 18 173 130 171 246 -1 138
-111 250 -245 250 -18 0 -29 6 -33 18 -3 9 -28 139 -56 287 -28 149 -53 277
-56 286 -3 11 10 21 43 36 l48 20 22 -21 c11 -12 154 -175 317 -364z m-6247
-930 l51 -48 -119 -269 c-66 -148 -121 -270 -122 -271 -1 -1 -24 3 -52 9 -116
24 -246 -58 -280 -178 -19 -65 -14 -122 15 -181 19 -37 19 -39 3 -55 -46 -42
-893 -729 -900 -729 -5 0 -23 13 -41 28 l-34 28 213 489 c117 270 213 491 213
491 1 1 24 -3 51 -9 160 -33 321 129 287 288 -5 28 -12 55 -14 62 -2 7 139 92
337 202 187 105 340 191 340 191 1 0 24 -22 52 -48z m4946 -179 c256 -153 327
-200 322 -212 -4 -9 -12 -38 -17 -66 -34 -158 127 -320 284 -288 l47 9 26 -60
c14 -34 106 -257 204 -496 l178 -434 -39 -29 c-35 -25 -42 -27 -56 -14 -24 20
-886 740 -891 743 -2 2 6 22 17 46 32 65 37 117 17 183 -33 116 -156 196 -274
180 l-47 -6 -107 274 c-59 150 -107 278 -107 283 0 5 18 19 41 32 22 13 43 30
46 38 3 8 10 14 16 14 6 0 159 -88 340 -197z m-5874 -2283 c254 -210 461 -382
461 -383 0 -2 -9 -20 -20 -41 -89 -176 63 -388 260 -361 l48 7 112 -283 c99
-252 109 -284 94 -292 -9 -5 -34 -25 -55 -44 l-38 -35 -326 198 c-254 154
-324 201 -320 213 4 9 12 39 17 66 34 159 -127 321 -287 288 -27 -6 -51 -10
-51 -9 -1 0 -101 228 -223 506 l-222 505 33 27 c18 15 38 26 45 23 6 -2 219
-175 472 -385z m6901 274 c0 -12 -438 -956 -448 -966 -4 -3 -29 -1 -57 4 -160
34 -321 -128 -287 -287 5 -27 12 -56 14 -63 2 -8 -119 -84 -326 -203 l-329
-189 -42 39 c-23 21 -47 40 -54 42 -9 3 21 85 94 264 59 143 111 269 115 281
8 19 12 20 57 11 114 -24 244 59 278 178 19 65 15 122 -15 179 l-18 37 475
369 475 370 34 -28 c19 -15 34 -32 34 -38z m-7252 -451 l223 -507 -39 -36
c-109 -99 -118 -259 -21 -365 96 -104 234 -110 342 -15 l47 41 325 -197 c254
-154 324 -201 320 -213 -4 -9 -12 -38 -17 -66 -25 -114 57 -245 173 -279 65
-20 83 -20 142 -2 l47 14 189 -333 190 -333 -44 -46 c-30 -30 -49 -63 -60 -97
-19 -66 -19 -82 1 -148 35 -118 165 -197 283 -173 66 14 124 53 154 102 l22
37 490 -211 c471 -203 490 -212 487 -236 -2 -14 -6 -27 -8 -29 -4 -5 -1771
125 -1835 135 -34 5 -37 8 -48 59 -32 143 -176 231 -311 192 -68 -20 -131 -72
-160 -132 -16 -33 -27 -44 -39 -41 -20 6 -579 126 -586 126 -3 0 -5 15 -5 33
0 142 -124 267 -265 267 l-31 0 -58 283 c-32 155 -60 292 -63 303 -4 18 4 26
41 44 59 28 113 91 131 154 19 63 19 80 -1 145 -23 78 -93 145 -173 167 l-60
17 -5 61 c-8 92 -68 1721 -64 1747 3 20 18 30 58 38 3 1 105 -227 228 -506z
m-319 481 c6 -5 72 -1708 69 -1773 l-3 -54 -49 -14 c-91 -27 -176 -141 -176
-238 0 -12 7 -45 16 -74 30 -101 140 -181 249 -181 l31 0 58 -282 c32 -156 60
-292 63 -304 3 -16 -5 -25 -44 -46 l-49 -25 -321 360 -320 361 27 38 c84 115
49 281 -75 356 -25 15 -45 31 -45 36 0 8 503 1808 515 1844 4 12 39 9 54 -4z
m7660 -50 c5 -4 -126 -1745 -134 -1800 -5 -28 -10 -32 -59 -43 -144 -32 -232
-176 -193 -311 20 -68 72 -131 132 -160 33 -16 44 -27 41 -39 -6 -20 -126
-579 -126 -586 0 -3 -15 -5 -33 -5 -56 0 -131 -28 -174 -65 -49 -42 -80 -101
-90 -175 l-8 -54 -285 -58 c-157 -31 -292 -57 -302 -58 -10 0 -25 18 -38 45
-29 60 -92 112 -160 132 -135 39 -279 -49 -311 -193 -11 -48 -15 -54 -38 -54
-14 -1 -426 -25 -916 -54 -489 -30 -893 -51 -896 -48 -4 4 -9 18 -12 32 -6 26
2 30 484 243 l491 216 52 -54 c69 -70 141 -94 226 -77 102 22 180 100 202 202
15 75 -6 149 -63 214 l-41 47 197 330 c145 241 202 328 213 324 135 -51 260
-7 319 113 22 45 28 70 27 122 0 36 -5 74 -11 85 -10 19 14 34 322 211 l334
192 45 -44 c113 -108 287 -89 378 41 70 100 57 227 -33 317 -27 27 -49 52 -49
57 0 4 86 191 191 417 105 225 206 442 224 482 33 70 35 72 62 66 15 -4 30 -8
32 -10z m315 -936 c124 -510 226 -931 226 -936 0 -6 -12 -13 -26 -16 -14 -4
-48 -29 -74 -55 -88 -88 -101 -212 -34 -314 25 -38 25 -39 7 -60 -10 -12 -156
-171 -326 -354 l-307 -332 -50 26 c-35 18 -49 31 -46 42 6 20 126 579 126 586
0 3 15 5 33 5 111 0 221 80 251 181 20 66 20 82 0 148 -21 71 -94 146 -158
163 -39 10 -46 16 -46 38 0 38 130 1740 136 1777 3 23 11 33 27 35 12 2 25 2
28 -1 4 -4 108 -423 233 -933z m-2274 -997 c0 -4 19 -29 41 -55 l41 -47 -197
-330 c-155 -258 -202 -329 -214 -324 -9 4 -38 12 -66 17 -159 34 -321 -127
-288 -287 6 -27 10 -51 9 -51 0 -1 -221 -99 -491 -218 l-490 -217 -31 37 -31
37 370 456 c203 251 375 462 382 469 11 12 17 11 36 -1 46 -30 116 -41 173
-28 119 27 192 126 190 258 l-1 71 276 110 c152 61 279 110 284 111 4 1 7 -3
7 -8z m-3449 -124 c253 -108 264 -114 259 -137 -10 -49 -3 -126 14 -161 56
-119 187 -173 315 -129 62 21 65 21 81 3 44 -47 720 -883 720 -890 0 -5 -13
-24 -28 -42 l-28 -34 -489 211 c-329 142 -489 216 -486 224 3 7 5 42 5 78 -1
110 -69 206 -167 235 -63 19 -82 19 -140 1 l-47 -14 -190 334 -190 335 34 34
c19 19 37 43 41 54 3 11 12 18 19 15 7 -3 132 -56 277 -117z m-1364 -1216
c156 -34 285 -61 287 -61 2 0 6 -24 9 -54 19 -185 202 -285 369 -203 63 31
114 90 124 144 6 30 9 33 43 33 57 -1 1831 -137 1835 -141 2 -2 6 -15 8 -28 3
-24 -1 -25 -937 -253 -517 -125 -946 -228 -952 -228 -7 0 -22 18 -33 39 -31
62 -86 109 -148 127 -78 23 -141 11 -228 -46 -20 -12 -42 5 -382 314 l-360
328 25 49 c18 34 31 48 42 45 9 -3 143 -32 298 -65z m6165 -39 l25 -48 -360
-320 -361 -321 -40 29 c-100 70 -228 57 -317 -32 -26 -26 -51 -60 -55 -74 -4
-18 -11 -25 -23 -22 -9 3 -430 114 -936 246 -506 133 -921 242 -922 243 -8 9
13 57 24 57 8 0 394 22 856 50 463 27 871 51 906 52 l64 3 14 -49 c20 -68 93
-139 164 -160 65 -20 82 -20 145 -1 97 29 165 113 181 225 l8 54 280 57 c154
31 289 57 301 58 16 1 28 -12 46 -47z"/>
</g>
</svg>
